<svg width="800" height="800" viewBox="0 0 800 800" fill="none" xmlns="http://www.w3.org/2000/svg">
<path d="M317.75 121.146H481.479C517.848 121.145 547.361 121.148 570.613 124.274C594.868 127.535 615.571 134.549 632.054 151.032C648.537 167.515 655.551 188.22 658.812 212.473C661.936 235.727 661.94 265.237 661.94 301.607V346.633L665.603 342.971L688.674 319.902C697.226 311.351 711.088 311.351 719.64 319.902V319.901C728.191 328.453 728.191 342.317 719.64 350.869L655.525 414.983C646.974 423.535 633.111 423.535 624.56 414.983L560.445 350.869C551.894 342.318 551.893 328.453 560.444 319.901L560.445 319.902C568.997 311.351 582.859 311.351 591.411 319.902L614.483 342.971L618.146 346.633V303.328C618.146 264.931 618.098 238.334 615.407 218.309V218.308C612.798 198.91 608.075 188.989 601.084 182H601.085C594.097 175.011 584.177 170.288 564.776 167.68C544.753 164.988 518.154 164.94 479.757 164.94H319.472C281.075 164.94 254.477 164.988 234.451 167.68C215.054 170.288 205.133 175.011 198.144 182C191.155 188.989 186.43 198.91 183.822 218.308C181.13 238.333 181.083 264.931 181.083 303.328V473.906L183.171 473.962C187.903 474.089 192.269 474.306 196.263 474.669H196.264C206.667 475.611 216.767 477.684 226.234 483.148C236.541 489.099 245.154 497.578 251.267 507.773L251.851 508.766C257.317 518.233 259.388 528.334 260.331 538.738C261.225 548.597 261.227 560.65 261.227 574.782V576.847C261.227 590.095 261.226 601.517 260.489 611.019L260.331 612.894C259.388 623.294 257.317 633.396 251.851 642.863C245.708 653.501 236.873 662.337 226.234 668.479C216.767 673.944 206.667 676.017 196.264 676.959C186.403 677.852 174.349 677.854 160.219 677.854H158.149C144.019 677.854 131.969 677.852 122.108 676.959H122.107C111.705 676.017 101.604 673.944 92.1357 668.479C81.4977 662.337 72.6633 653.5 66.5215 642.863C61.3969 633.988 59.2552 624.554 58.2305 614.84L58.04 612.894C57.1464 603.032 57.1452 590.979 57.1455 576.847V574.779C57.1452 560.65 57.1464 548.597 58.04 538.738C58.9536 528.66 60.9267 518.865 66.0186 509.655L66.5215 508.766C72.4716 498.461 80.9486 489.846 91.1445 483.732L92.1367 483.148C101.605 477.684 111.705 475.611 122.107 474.669H122.108C126.102 474.306 130.469 474.089 135.2 473.962L137.288 473.906V301.607L137.294 288.289C137.337 257.957 137.682 232.82 140.418 212.473C143.679 188.22 150.693 167.515 167.176 151.032C183.659 134.549 204.362 127.535 228.615 124.274C251.869 121.148 281.38 121.145 317.75 121.146ZM159.186 517.569C143.804 517.569 133.728 517.589 126.061 518.286C118.697 518.953 115.726 520.101 114.034 521.078C110.053 523.376 106.748 526.683 104.449 530.663L104.448 530.664C103.533 532.251 102.467 534.959 101.787 541.358L101.656 542.688C100.961 550.358 100.94 560.433 100.94 575.814C100.94 591.196 100.961 601.271 101.656 608.94C102.324 616.304 103.472 619.273 104.448 620.965L104.449 620.966C106.748 624.946 110.053 628.253 114.034 630.551C115.726 631.528 118.697 632.675 126.061 633.343C133.728 634.04 143.804 634.06 159.186 634.06C173.606 634.06 183.362 634.041 190.844 633.465L192.311 633.343C199.214 632.717 202.256 631.669 204.004 630.735L204.337 630.551C208.319 628.253 211.625 624.946 213.923 620.966V620.965C214.899 619.273 216.047 616.304 216.715 608.94C217.41 601.271 217.431 591.196 217.431 575.814C217.431 560.433 217.41 550.358 216.715 542.688C216.047 535.325 214.899 532.356 213.923 530.664V530.663L213.479 529.925C211.359 526.517 208.484 523.64 205.075 521.521L204.337 521.078C202.751 520.162 200.04 519.096 193.641 518.417L192.311 518.286C184.642 517.589 174.567 517.569 159.186 517.569Z" fill="#151521" stroke="white" stroke-width="4.29063"/>
<path d="M398.581 473.774H400.648C414.777 473.774 426.831 473.776 436.692 474.669C447.093 475.611 457.195 477.684 466.662 483.148C476.967 489.099 485.582 497.579 491.695 507.774L492.279 508.765C497.743 518.233 499.817 528.334 500.759 538.738C501.652 548.596 501.654 560.65 501.654 574.782V576.85C501.654 590.099 501.652 601.518 500.916 611.019L500.759 612.893C499.846 622.969 497.872 632.764 492.781 641.974L492.279 642.863C486.328 653.168 477.849 661.783 467.654 667.896L466.662 668.48C457.195 673.944 447.093 676.018 436.692 676.959C426.831 677.853 414.778 677.855 400.646 677.855H398.578C384.446 677.855 372.395 677.853 362.537 676.959C352.459 676.047 342.664 674.072 333.454 668.982L332.564 668.48C321.926 662.337 313.091 653.5 306.949 642.863C301.483 633.396 299.411 623.294 298.468 612.893C297.574 603.032 297.573 590.978 297.573 576.846V574.779C297.573 560.65 297.574 548.596 298.468 538.738C299.411 528.334 301.483 518.232 306.949 508.765C313.091 498.128 321.925 489.291 332.563 483.148L332.564 483.149C342.032 477.685 352.134 475.611 362.537 474.669C372.395 473.776 384.449 473.774 398.581 473.774ZM399.613 517.569C385.193 517.569 375.437 517.587 367.954 518.164L366.487 518.286C359.584 518.911 356.544 519.96 354.796 520.893L354.463 521.078C350.731 523.232 347.59 526.273 345.319 529.924L344.877 530.664C343.961 532.25 342.895 534.959 342.216 541.358L342.085 542.688C341.388 550.357 341.368 560.433 341.368 575.814C341.368 590.234 341.386 599.991 341.963 607.474L342.085 608.941C342.752 616.304 343.9 619.273 344.877 620.965C347.175 624.946 350.482 628.253 354.463 630.55C356.05 631.466 358.758 632.532 365.157 633.211L366.487 633.342C374.157 634.039 384.232 634.059 399.613 634.059C414.995 634.059 425.071 634.039 432.74 633.342L432.739 633.341C440.103 632.674 443.072 631.527 444.765 630.55C448.745 628.253 452.052 624.946 454.35 620.965C455.326 619.273 456.474 616.304 457.142 608.941C457.839 601.271 457.858 591.195 457.858 575.814C457.858 561.394 457.841 551.637 457.265 544.155L457.142 542.688C456.474 535.325 455.326 532.356 454.35 530.664C452.195 526.932 449.155 523.791 445.503 521.52L444.765 521.078L444.431 520.893C442.683 519.96 439.642 518.911 432.739 518.286H432.74C425.071 517.589 414.995 517.569 399.613 517.569Z" fill="#151521" stroke="white" stroke-width="4.29063"/>
<path d="M639.011 473.774H641.075C655.207 473.774 667.261 473.776 677.122 474.669C687.522 475.611 697.624 477.684 707.092 483.148C717.397 489.099 726.012 497.579 732.125 507.774L732.709 508.765C738.173 518.233 740.247 528.334 741.188 538.738C742.082 548.596 742.084 560.647 742.084 574.779V576.846C742.084 590.978 742.082 603.032 741.188 612.893C740.276 622.969 738.301 632.764 733.211 641.974L732.709 642.863C726.758 653.168 718.279 661.783 708.084 667.896L707.092 668.48C697.624 673.944 687.522 676.018 677.122 676.959C667.261 677.853 655.211 677.855 641.079 677.855H639.011C624.879 677.855 612.825 677.853 602.967 676.959C592.888 676.047 583.093 674.072 573.884 668.982L572.994 668.48C562.357 662.337 553.52 653.5 547.377 642.863H547.378C541.914 633.395 539.84 623.293 538.898 612.893C538.005 603.032 538.003 590.979 538.003 576.85V574.782C538.003 560.65 538.005 548.596 538.898 538.738C539.84 528.334 541.913 518.232 547.377 508.764C553.52 498.127 562.356 489.291 572.993 483.148L572.994 483.149C582.462 477.685 592.563 475.611 602.967 474.669C612.825 473.776 624.879 473.774 639.011 473.774ZM640.043 517.569C625.623 517.569 615.866 517.587 608.384 518.164L606.917 518.286C600.014 518.911 596.973 519.96 595.226 520.893L594.893 521.078C591.161 523.232 588.02 526.273 585.749 529.924L585.307 530.664C584.391 532.25 583.325 534.959 582.646 541.358L582.515 542.688C581.818 550.357 581.798 560.433 581.798 575.814C581.798 590.234 581.816 599.991 582.393 607.474L582.515 608.941C583.182 616.304 584.33 619.273 585.307 620.965C587.604 624.946 590.912 628.253 594.893 630.55C596.479 631.466 599.188 632.532 605.587 633.211L606.917 633.342C614.586 634.039 624.662 634.059 640.043 634.059C655.424 634.059 665.5 634.038 673.169 633.341C680.532 632.674 683.502 631.527 685.194 630.55C689.175 628.253 692.482 624.946 694.779 620.965C695.756 619.273 696.904 616.304 697.571 608.941C698.268 601.271 698.288 591.195 698.288 575.814C698.288 561.394 698.271 551.637 697.694 544.155L697.571 542.688C696.904 535.325 695.756 532.356 694.779 530.664C692.625 526.932 689.584 523.791 685.933 521.52L685.194 521.078L684.86 520.893C683.113 519.96 680.072 518.911 673.17 518.286C665.5 517.589 655.424 517.569 640.043 517.569Z" fill="#151521" stroke="white" stroke-width="4.29063"/>
</svg>
