<svg width="800" height="800" viewBox="0 0 800 800" fill="none" xmlns="http://www.w3.org/2000/svg">
<path d="M356.696 117C508.981 117 633.139 237.33 639.163 388.023L639.71 401.711L649.399 392.028L686.959 354.494C695.75 345.708 709.922 345.571 718.881 354.082L719.304 354.494C728.232 363.417 728.232 377.883 719.304 386.806L632.694 473.355C628.407 477.64 622.588 480.05 616.522 480.05C610.456 480.05 604.637 477.64 600.35 473.355L513.741 386.806C504.952 378.023 504.815 363.868 513.329 354.917L513.741 354.494C522.532 345.708 536.704 345.571 545.663 354.082L546.086 354.494L583.091 391.475L594.142 402.518L593.324 386.916C586.775 261.979 483.336 162.7 356.696 162.7C225.832 162.7 119.739 268.715 119.739 399.5C119.739 530.286 225.832 636.3 356.696 636.3C431.122 636.3 497.525 602.036 541.003 548.343C548.947 538.532 563.35 537.013 573.169 544.953L573.17 544.954C582.989 552.893 584.506 567.279 576.563 577.087C524.773 641.042 445.512 682 356.696 682C200.564 682 74 555.515 74 399.5C74 243.483 200.564 117 356.696 117ZM356.696 203.55C369.331 203.55 379.565 213.785 379.565 226.4V390.037L381.324 391.794L459.478 469.895C468.406 478.817 468.406 493.284 459.478 502.206C450.547 511.131 436.063 511.131 427.132 502.206L340.523 415.655C336.236 411.371 333.826 405.558 333.826 399.5V226.4C333.826 213.785 344.062 203.55 356.696 203.55Z" fill="#151521" stroke="white" stroke-width="12"/>
</svg>
