<svg width="800" height="800" viewBox="0 0 800 800" fill="none" xmlns="http://www.w3.org/2000/svg">
<path fill-rule="evenodd" clip-rule="evenodd" d="M149.464 303.466C148.484 309.344 147.75 314.742 147.2 319.539C142.693 320.923 137.836 322.767 132.902 325.235C122.479 330.446 111.197 338.706 102.584 351.628C93.8522 364.724 89 380.916 89 400C89 419.084 93.8522 435.276 102.584 448.372C111.197 461.292 122.479 469.554 132.902 474.764C137.836 477.233 142.693 479.076 147.2 480.461C147.75 485.259 148.484 490.657 149.464 496.534C153.307 519.591 161.045 550.764 176.803 582.28C192.616 613.906 216.78 646.394 253.556 670.912C290.508 695.546 338.507 711 400 711C461.493 711 509.492 695.546 546.444 670.912C583.219 646.394 607.383 613.906 623.196 582.28C638.955 550.764 646.694 519.591 650.536 496.534C651.514 490.657 652.249 485.259 652.801 480.461C657.307 479.076 662.165 477.233 667.098 474.764C677.519 469.554 688.803 461.292 697.418 448.372C706.148 435.276 711 419.084 711 400C711 380.916 706.148 364.724 697.418 351.628C688.803 338.706 677.519 330.446 667.098 325.235C662.165 322.767 657.307 320.923 652.801 319.539C652.249 314.742 651.514 309.344 650.536 303.466C646.694 280.409 638.955 249.236 623.196 217.72C607.383 186.093 583.219 153.606 546.444 129.089C509.492 104.454 461.493 89 400 89C338.507 89 290.508 104.454 253.556 129.089C216.781 153.606 192.616 186.093 176.803 217.72C161.045 249.236 153.307 280.409 149.464 303.466ZM595.153 484.818H204.848C207.926 504.383 214.334 530.903 227.379 556.993C239.838 581.912 258.083 605.97 284.922 623.861C311.583 641.636 348.402 654.455 400 654.455C451.598 654.455 488.417 641.636 515.078 623.861C541.918 605.97 560.162 581.912 572.622 556.993C585.664 530.903 592.074 504.383 595.153 484.818ZM595.153 315.182H569.636C554.021 315.182 541.364 327.84 541.364 343.455C541.364 359.07 554.021 371.727 569.636 371.727H626.182C634.901 372.067 645.291 375.377 650.366 382.991C652.238 385.799 654.455 390.811 654.455 400C654.455 409.189 652.238 414.201 650.366 417.009C645.291 424.623 634.901 427.933 626.182 428.273H173.818C165.097 427.933 154.71 424.623 149.632 417.009C147.761 414.201 145.545 409.189 145.545 400C145.545 390.811 147.761 385.799 149.632 382.991C154.71 375.377 165.097 372.067 173.818 371.727H230.364C245.978 371.727 258.636 359.07 258.636 343.455C258.636 327.84 245.978 315.182 230.364 315.182H204.848C207.926 295.618 214.335 269.096 227.379 243.007C239.838 218.089 258.083 194.03 284.922 176.138C293.82 170.206 303.849 164.826 315.182 160.29V230.364C315.182 245.978 327.84 258.636 343.455 258.636C359.07 258.636 371.727 245.978 371.727 230.364V146.923C380.622 146.024 390.037 145.545 400 145.545C409.963 145.545 419.378 146.024 428.273 146.923V230.364C428.273 245.978 440.93 258.636 456.545 258.636C472.16 258.636 484.818 245.978 484.818 230.364V160.29C496.15 164.826 506.181 170.206 515.078 176.138C541.918 194.03 560.162 218.089 572.622 243.007C585.664 269.096 592.074 295.618 595.153 315.182Z" fill="#151521" stroke="white" stroke-width="21"/>
</svg>
