<svg width="800" height="800" viewBox="0 0 800 800" fill="none" xmlns="http://www.w3.org/2000/svg">
<path d="M171.746 205.102V441.867C171.746 570.757 273.816 675.242 399.725 675.242C525.634 675.242 627.704 570.757 627.704 441.867V205.208L398.348 128.082L171.746 205.102ZM398.276 82L670.45 173.524V441.867C670.45 594.923 549.242 719 399.725 719C250.208 719 129 594.923 129 441.867V173.524L398.276 82ZM539.027 288.561C530.206 280.532 516.697 281.343 508.853 290.373L371.394 448.616L282.584 350.364C274.568 341.495 261.045 340.958 252.381 349.164C243.717 357.371 243.192 371.213 251.209 380.083L356.021 496.038C364.595 505.524 379.291 505.375 387.68 495.717L540.797 319.45C548.64 310.42 547.848 296.591 539.027 288.561Z" fill="#151521"/>
</svg>
