<svg width="800" height="800" viewBox="0 0 800 800" fill="none" xmlns="http://www.w3.org/2000/svg">
<path d="M683.633 287.173V712H485.163C462.661 712 441.079 703.061 425.168 687.149C409.256 671.237 400.317 649.656 400.317 627.153C400.317 638.296 398.122 649.329 393.858 659.623C389.594 669.917 383.344 679.27 375.466 687.149C367.587 695.028 358.233 701.277 347.939 705.541C337.645 709.805 326.612 712 315.47 712H117V287.173C128.167 287.212 139.232 285.047 149.561 280.8C159.889 276.554 169.277 270.31 177.188 262.427C185.098 254.545 191.374 245.178 195.656 234.865C199.939 224.551 202.143 213.494 202.143 202.327V89H598.49V202.327C598.49 213.494 600.694 224.551 604.977 234.865C609.259 245.178 615.536 254.545 623.446 262.427C631.356 270.31 640.744 276.554 651.073 280.8C661.401 285.047 672.466 287.212 683.633 287.173Z" stroke="#151521" stroke-width="36.66" stroke-miterlimit="10"/>
<path d="M400.317 343.837L286.99 89H513.644L400.317 343.837Z" stroke="#151521" stroke-width="36.66" stroke-miterlimit="10"/>
<path d="M400.316 627.154V343.837" stroke="#151521" stroke-width="36.66" stroke-miterlimit="10"/>
<path d="M117 428.683H315.47" stroke="#151521" stroke-width="36.66" stroke-miterlimit="10"/>
<path d="M117 570.49H315.47" stroke="#151521" stroke-width="36.66" stroke-miterlimit="10"/>
<path d="M485.163 428.683H683.633" stroke="#151521" stroke-width="36.66" stroke-miterlimit="10"/>
<path d="M485.163 570.49H683.633" stroke="#151521" stroke-width="36.66" stroke-miterlimit="10"/>
</svg>
