<svg width="800" height="800" viewBox="0 0 800 800" fill="none" xmlns="http://www.w3.org/2000/svg">
<path d="M332.949 630.5H470.866V579.667H332.949V630.5ZM275.8 558.103L275.11 556.551L219.377 431.151C192.439 370.542 192.383 299.649 216.005 238.838C249.761 157.912 320.198 108 400.166 108C480.246 108 550.391 157.973 577.193 238.38L577.256 238.566L577.327 238.75C600.984 299.581 600.94 370.513 573.989 431.151L518.256 556.551L517.566 558.103V629.467C517.566 659.882 493.281 684.167 462.866 684.167H454.866V692.167C454.866 700.799 452.023 707.37 447.63 711.764C443.236 716.157 436.665 719 428.033 719H365.333C356.701 719 350.129 716.157 345.735 711.764C341.342 707.37 338.5 700.799 338.5 692.167V684.167H330.5C300.085 684.167 275.8 659.882 275.8 629.467V558.103ZM369.85 466.471L363.79 464.955C352.801 462.208 341.983 451.029 341.982 437.884C341.982 429.252 344.825 422.68 349.219 418.286C353.612 413.893 360.184 411.05 368.816 411.05H428.033C436.665 411.05 443.236 413.893 447.63 418.286C452.023 422.68 454.866 429.252 454.866 437.884C454.866 451.776 446.831 462.192 433.431 464.872L426.999 466.158V526H478.401L480.56 521.396L532.81 409.929L532.931 409.671L533.033 409.405C551.161 362.273 551.161 307.977 533.033 260.845L532.999 260.758L532.964 260.671L532.366 259.233C506.887 198.574 459.371 161.667 400.166 161.667C340.495 161.667 292.698 199.157 267.369 260.671L267.333 260.758L267.3 260.845C249.188 307.935 249.11 362.376 270.919 409.74H270.92L319.687 521.206L321.784 526H369.85V466.471Z" fill="#151521" stroke="white" stroke-width="16"/>
<path d="M67.9404 150.94C78.7495 140.131 94.5844 140.131 105.394 150.94L140.228 185.774C151.036 196.583 151.037 212.418 140.228 223.227C137.216 226.238 134.522 228.178 131.749 229.411C129.011 230.628 125.792 231.333 121.501 231.333C117.21 231.333 113.991 230.628 111.252 229.411C108.479 228.178 105.785 226.238 102.774 223.227L67.9404 188.393C57.1316 177.584 57.1314 161.749 67.9404 150.94Z" fill="#151521" stroke="white" stroke-width="16"/>
<path d="M51.833 282.167H86.667C95.2988 282.167 101.87 285.009 106.264 289.403C110.657 293.796 113.5 300.368 113.5 309C113.5 317.632 110.657 324.204 106.264 328.597C101.87 332.991 95.2987 335.833 86.667 335.833H51.833C43.2013 335.833 36.6299 332.991 32.2363 328.597C27.8427 324.204 25 317.632 25 309C25.0001 300.368 27.8428 293.796 32.2363 289.403C36.6299 285.009 43.2011 282.167 51.833 282.167Z" fill="#151521" stroke="white" stroke-width="16"/>
<path d="M102.774 394.773C113.584 383.964 129.419 383.964 140.228 394.773C151.037 405.582 151.036 421.417 140.228 432.226L105.394 467.06C102.383 470.071 99.6893 472.011 96.916 473.244C94.1774 474.461 90.9584 475.167 86.667 475.167C82.3759 475.166 79.1575 474.461 76.4189 473.244C73.6455 472.011 70.9515 470.071 67.9404 467.06C57.1314 456.251 57.1316 440.416 67.9404 429.607L102.774 394.773Z" fill="#151521" stroke="white" stroke-width="16"/>
<path d="M660.106 394.773C670.915 383.964 686.75 383.964 697.56 394.773L732.394 429.607C743.202 440.416 743.203 456.251 732.394 467.06C727.025 472.428 718.655 475.166 713.667 475.167C708.679 475.167 700.309 472.428 694.94 467.06L660.106 432.226C649.298 421.417 649.297 405.582 660.106 394.773Z" fill="#151521" stroke="white" stroke-width="16"/>
<path d="M713.667 282.167H748.501C757.133 282.167 763.704 285.009 768.098 289.403C772.491 293.796 775.334 300.368 775.334 309C775.334 317.632 772.491 324.204 768.098 328.597C763.704 332.991 757.133 335.833 748.501 335.833H713.667C705.035 335.833 698.464 332.991 694.07 328.597C689.677 324.204 686.834 317.632 686.834 309C686.834 300.368 689.677 293.796 694.07 289.403C698.464 285.009 705.035 282.167 713.667 282.167Z" fill="#151521" stroke="white" stroke-width="16"/>
<path d="M694.94 150.94C705.75 140.131 721.585 140.131 732.394 150.94C743.203 161.749 743.202 177.584 732.394 188.393L697.56 223.227C694.549 226.238 691.855 228.178 689.082 229.411C686.343 230.628 683.124 231.333 678.833 231.333C674.542 231.333 671.323 230.628 668.585 229.411C665.812 228.178 663.118 226.238 660.106 223.227C649.297 212.418 649.298 196.583 660.106 185.774L694.94 150.94Z" fill="#151521" stroke="white" stroke-width="16"/>
</svg>
