<svg width="800" height="800" viewBox="0 0 800 800" fill="none" xmlns="http://www.w3.org/2000/svg">
<path d="M690.969 109H110.031C73.0077 109 43 139.011 43 176.038V533.577C43 570.604 73.0077 600.615 110.031 600.615H311.125V667.654H277.609C271.443 667.654 266.438 672.659 266.438 678.827C266.438 684.994 271.443 690 277.609 690H523.391C529.557 690 534.562 684.994 534.562 678.827C534.562 672.659 529.557 667.654 523.391 667.654H489.875V600.615H690.969C727.992 600.615 758 570.604 758 533.577V176.038C758 139.011 727.992 109 690.969 109ZM467.531 667.654H333.469V600.615H467.531V667.654ZM735.656 533.577C735.656 558.269 715.659 578.269 690.969 578.269H110.031C85.3414 578.269 65.3438 558.269 65.3438 533.577V176.038C65.3438 151.346 85.3414 131.346 110.031 131.346H690.969C715.659 131.346 735.656 151.346 735.656 176.038V533.577ZM619.58 221.401C602.108 217.96 586.623 228.105 581.306 243.077H445.188V220.731H355.812V243.077H219.694C214.377 228.105 198.87 217.96 181.42 221.401C168.617 223.926 158.182 234.183 155.501 246.965C150.92 268.663 167.343 287.769 188.234 287.769C202.803 287.769 215.092 278.406 219.694 265.423H355.812V270.429C257.768 290.473 182.76 374.517 177.375 477.041C177.04 483.454 182.135 488.885 188.57 488.885C194.446 488.885 199.384 484.326 199.674 478.449C204.344 387.612 269.7 312.864 355.812 293.222V310.115H445.188V293.199C531.3 312.864 596.656 387.612 601.326 478.427C601.638 484.326 606.554 488.885 612.43 488.885C618.865 488.885 623.96 483.454 623.625 477.041C618.24 374.517 543.232 290.473 445.188 270.429V265.423H581.306C585.931 278.406 598.197 287.769 612.766 287.769C633.657 287.769 650.08 268.663 645.522 246.965C642.818 234.183 632.383 223.926 619.58 221.401ZM188.234 265.423C182.068 265.423 177.062 260.418 177.062 254.25C177.062 248.082 182.068 243.077 188.234 243.077C194.401 243.077 199.406 248.082 199.406 254.25C199.406 260.418 194.401 265.423 188.234 265.423ZM422.844 287.769H378.156V243.077H422.844V287.769ZM612.766 265.423C606.599 265.423 601.594 260.418 601.594 254.25C601.594 248.082 606.599 243.077 612.766 243.077C618.932 243.077 623.938 248.082 623.938 254.25C623.938 260.418 618.932 265.423 612.766 265.423Z" fill="#151521" stroke="#151521" stroke-width="9"/>
</svg>
