<svg width="800" height="800" viewBox="0 0 800 800" fill="none" xmlns="http://www.w3.org/2000/svg">
<path d="M714.134 247.87L405.938 66.5338C402.461 64.4887 398.149 64.4887 394.673 66.5338L86.4751 247.87C81.19 250.981 79.4248 257.787 82.536 263.075C85.6458 268.361 92.4518 270.124 97.7414 267.016L146.796 238.153V654.813C146.796 660.946 151.767 665.919 157.903 665.919H331.365C337.5 665.919 342.472 660.946 342.472 654.813C342.472 648.679 337.5 643.706 331.365 643.706H169.009V225.084L400.305 88.9924L631.601 225.083V643.705H483.161C477.026 643.705 472.055 648.678 472.055 654.811C472.055 660.945 477.026 665.918 483.161 665.918H642.707C648.842 665.918 653.813 660.945 653.813 654.811V238.153L702.868 267.016C704.638 268.057 706.576 268.552 708.491 268.552C712.297 268.552 716.003 266.594 718.073 263.075C721.185 257.789 719.42 250.981 714.134 247.87Z" fill="#151521" stroke="black" stroke-width="3"/>
<path d="M526.144 437.335C526.144 346.483 481.464 261.347 406.623 209.596C402.823 206.967 397.79 206.967 393.99 209.596C319.149 261.347 274.469 346.483 274.469 437.335C274.469 526.221 317.258 609.619 389.199 661.651V749.894C389.199 756.027 394.172 761 400.306 761C406.441 761 411.412 756.027 411.412 749.894V661.653C483.353 609.62 526.144 526.223 526.144 437.335ZM411.411 633.604L411.409 497.49L477.985 430.914C482.323 426.576 482.323 419.544 477.985 415.208C473.646 410.87 466.615 410.87 462.278 415.208L411.411 466.077L411.409 275.624C411.409 269.49 406.438 264.518 400.303 264.518C394.168 264.518 389.196 269.49 389.196 275.624L389.198 466.072L338.336 415.211C333.998 410.873 326.966 410.873 322.629 415.211C318.292 419.548 318.292 426.581 322.629 430.917L389.199 497.485L389.201 633.602C330.907 585.439 296.683 513.579 296.683 437.335C296.683 356.362 335.273 280.326 400.309 232.377C465.345 280.326 503.934 356.362 503.934 437.335C503.931 513.581 469.706 585.441 411.411 633.604Z" fill="#151521" stroke="black" stroke-width="3"/>
</svg>
