<svg width="800" height="800" viewBox="0 0 800 800" fill="none" xmlns="http://www.w3.org/2000/svg">
<path d="M399.5 225.715C443.328 225.715 478.858 190.186 478.858 146.358C478.858 102.53 443.328 67 399.5 67C355.672 67 320.143 102.53 320.143 146.358C320.143 190.186 355.672 225.715 399.5 225.715Z" stroke="#151521" stroke-width="32.91" stroke-miterlimit="10" stroke-linecap="round" stroke-linejoin="round"/>
<path d="M169.358 622.503C213.186 622.503 248.715 586.974 248.715 543.146C248.715 499.318 213.186 463.788 169.358 463.788C125.53 463.788 90 499.318 90 543.146C90 586.974 125.53 622.503 169.358 622.503Z" stroke="#151521" stroke-width="32.91" stroke-miterlimit="10" stroke-linecap="round" stroke-linejoin="round"/>
<path d="M629.643 622.503C673.471 622.503 709 586.974 709 543.146C709 499.318 673.471 463.788 629.643 463.788C585.815 463.788 550.285 499.318 550.285 543.146C550.285 586.974 585.815 622.503 629.643 622.503Z" stroke="#151521" stroke-width="32.91" stroke-miterlimit="10" stroke-linecap="round" stroke-linejoin="round"/>
<path d="M579.382 603.981C531.767 648.951 468.281 675.403 399.504 675.403C330.728 675.403 267.242 648.951 219.627 603.981" stroke="#151521" stroke-width="32.91" stroke-miterlimit="10" stroke-linecap="round" stroke-linejoin="round"/>
<path d="M478.857 159.584C587.313 193.972 664.025 294.492 664.025 410.883C664.025 429.4 661.38 447.917 658.735 466.434" stroke="#151521" stroke-width="32.91" stroke-miterlimit="10" stroke-linecap="round" stroke-linejoin="round"/>
<path d="M140.265 469.079C137.62 450.562 134.975 432.045 134.975 410.883C134.975 291.847 211.687 191.327 320.142 159.584" stroke="#151521" stroke-width="32.91" stroke-miterlimit="10" stroke-linecap="round" stroke-linejoin="round"/>
</svg>
