<svg width="800" height="783" viewBox="0 0 800 783" fill="none" xmlns="http://www.w3.org/2000/svg">
<mask id="path-1-inside-1_1259_1522" fill="white">
<path d="M651.344 459.631C641.96 455.685 631.061 453.389 619.626 453.389C606.765 453.389 594.594 456.287 583.717 461.458L584.23 461.235L455.439 519.078C455.506 518.03 456.019 517.138 456.019 516.091C455.684 485.531 430.853 460.901 400.249 460.901C398.711 460.901 397.196 460.968 395.702 461.079L395.903 461.057H311.58L205.481 429.963C204.099 429.517 202.516 429.272 200.867 429.272C200.845 429.272 200.8 429.272 200.778 429.272H152.431V412.398C152.431 403.17 144.942 395.681 135.714 395.681H49.1623C39.9344 395.681 32.445 403.17 32.445 412.398V684.513C32.445 693.741 39.9344 701.23 49.1623 701.23H135.714C144.942 701.23 152.431 693.741 152.431 684.513V662.111C192.954 668.442 229.22 678.65 263.59 692.582L260.269 691.378C285.903 700.65 315.503 706 346.353 706C346.509 706 346.665 706 346.821 706H346.798C346.91 706 347.044 706 347.177 706C382.93 706 417.011 698.89 448.106 685.984L446.367 686.63C474.073 674.304 497.589 661.309 519.857 646.531L518.029 647.668C525.563 643.009 533.052 638.35 540.631 633.87C577.03 612.316 606.274 593.392 632.665 574.312C645.571 565.128 656.805 556.056 667.504 546.383L667.192 546.672C675.506 539.941 682.149 531.471 686.607 521.797L686.785 521.373C687.476 519.613 687.855 517.584 687.855 515.444C687.855 514.174 687.721 512.948 687.454 511.767L687.476 511.878C684.222 489.209 670.647 470.285 651.746 459.787L651.389 459.608L651.344 459.631ZM118.996 667.818H65.8797V429.116H118.996V667.818ZM643.654 522.934C634.471 531.181 624.485 539.183 614.053 546.605L613.006 547.319C587.529 565.73 559.109 584.097 523.534 605.183C515.778 609.753 508.132 614.5 500.42 619.248C481.384 632.02 459.473 644.213 436.582 654.6L433.684 655.781C408.006 666.346 378.182 672.454 346.932 672.454C320.117 672.454 294.35 667.929 270.344 659.637L271.994 660.128C237.333 645.684 197.033 634.606 155.017 628.766L152.409 628.476V462.729H198.37L304.47 493.823C305.852 494.269 307.435 494.514 309.084 494.514C309.106 494.514 309.151 494.514 309.173 494.514H395.881C415.563 494.514 422.561 506.127 422.561 516.113C422.561 526.099 415.563 537.712 395.881 537.712H244.109C234.881 537.712 227.392 545.201 227.392 554.429C227.392 563.657 234.881 571.147 244.109 571.147H417.546C417.569 571.147 417.613 571.147 417.635 571.147C420.087 571.147 422.405 570.612 424.478 569.631L424.389 569.675L598.138 491.661C604.558 488.719 612.07 487.003 619.982 487.003C625.889 487.003 631.573 487.961 636.878 489.722L636.499 489.61C645.036 494.737 651.166 503.073 653.261 512.926L653.306 513.171C650.274 516.715 647.109 519.902 643.743 522.867L643.632 522.956L643.654 522.934ZM671.115 54.0672H584.564C575.336 54.0672 567.847 61.5566 567.847 70.7846V93.3196C527.413 87.1007 491.103 76.8251 456.821 62.6934L460.008 63.8524C434.174 54.6022 404.373 49.2749 373.301 49.2749C337.504 49.2749 303.355 56.3854 272.194 69.2466L273.955 68.6002C246.271 80.9042 222.756 93.9214 200.51 108.722L202.316 107.585C194.804 112.221 187.292 116.88 179.714 121.36C143.025 143.093 113.781 161.995 87.7237 180.896C74.8848 189.991 63.6953 198.996 53.0631 208.625L53.3751 208.357C44.9719 215.134 38.2626 223.648 33.7155 233.389L33.5372 233.812C32.8239 235.618 32.4004 237.713 32.4004 239.897C32.4004 241.146 32.5341 242.349 32.7793 243.508L32.757 243.397C36.0336 266.043 49.6081 284.945 68.5099 295.466L68.8665 295.644C77.2698 299.79 87.1442 302.22 97.5981 302.22C97.8879 302.22 98.1777 302.22 98.4674 302.22H98.4229C112.064 302.042 124.97 299.055 136.65 293.817L136.048 294.062L264.839 236.175C264.772 237.223 264.259 238.137 264.259 239.184C264.571 269.744 289.424 294.396 320.028 294.396C321.566 294.396 323.06 294.329 324.575 294.218L324.375 294.24H408.697L514.797 325.334C516.179 325.758 517.784 326.003 519.433 326.003C519.455 326.003 519.478 326.003 519.5 326.003H567.824V342.876C567.824 352.104 575.314 359.594 584.542 359.594H671.093C680.321 359.594 687.81 352.104 687.81 342.876V70.7846C687.81 61.5566 680.343 54.0672 671.115 54.0672ZM521.93 292.568L415.83 261.496C414.448 261.073 412.843 260.828 411.194 260.828C411.171 260.828 411.149 260.828 411.127 260.828H324.419C304.737 260.828 297.761 249.192 297.761 239.207C297.761 229.221 304.737 217.585 324.419 217.585H476.191C485.419 217.585 492.908 210.096 492.908 200.868C492.908 191.64 485.419 184.151 476.191 184.151H302.731C300.257 184.151 297.895 184.686 295.777 185.644L295.888 185.599L122.184 263.681C115.787 266.623 108.275 268.362 100.384 268.362C94.4553 268.362 88.7491 267.403 83.4441 265.598L83.823 265.709C75.3083 260.605 69.1786 252.246 67.0834 242.416L67.0388 242.171C70.0702 238.627 73.2353 235.417 76.6457 232.475L76.7571 232.386C85.9628 224.072 95.9487 216.07 106.403 208.692L107.406 208.023C132.638 189.723 161.057 171.334 196.855 150.159C204.612 145.545 212.302 140.775 219.992 136.027C239.027 123.255 260.916 111.085 283.83 100.742L286.705 99.583C312.405 89.0177 342.229 82.8657 373.502 82.8657C400.294 82.8657 426.039 87.3682 450.023 95.6823L448.373 95.1919C483.012 109.613 523.311 120.714 565.283 126.598L567.913 126.91V292.613L521.93 292.568ZM654.398 326.159H601.281V87.502H654.398V326.159Z"/>
</mask>
<path d="M651.344 459.631C641.96 455.685 631.061 453.389 619.626 453.389C606.765 453.389 594.594 456.287 583.717 461.458L584.23 461.235L455.439 519.078C455.506 518.03 456.019 517.138 456.019 516.091C455.684 485.531 430.853 460.901 400.249 460.901C398.711 460.901 397.196 460.968 395.702 461.079L395.903 461.057H311.58L205.481 429.963C204.099 429.517 202.516 429.272 200.867 429.272C200.845 429.272 200.8 429.272 200.778 429.272H152.431V412.398C152.431 403.17 144.942 395.681 135.714 395.681H49.1623C39.9344 395.681 32.445 403.17 32.445 412.398V684.513C32.445 693.741 39.9344 701.23 49.1623 701.23H135.714C144.942 701.23 152.431 693.741 152.431 684.513V662.111C192.954 668.442 229.22 678.65 263.59 692.582L260.269 691.378C285.903 700.65 315.503 706 346.353 706C346.509 706 346.665 706 346.821 706H346.798C346.91 706 347.044 706 347.177 706C382.93 706 417.011 698.89 448.106 685.984L446.367 686.63C474.073 674.304 497.589 661.309 519.857 646.531L518.029 647.668C525.563 643.009 533.052 638.35 540.631 633.87C577.03 612.316 606.274 593.392 632.665 574.312C645.571 565.128 656.805 556.056 667.504 546.383L667.192 546.672C675.506 539.941 682.149 531.471 686.607 521.797L686.785 521.373C687.476 519.613 687.855 517.584 687.855 515.444C687.855 514.174 687.721 512.948 687.454 511.767L687.476 511.878C684.222 489.209 670.647 470.285 651.746 459.787L651.389 459.608L651.344 459.631ZM118.996 667.818H65.8797V429.116H118.996V667.818ZM643.654 522.934C634.471 531.181 624.485 539.183 614.053 546.605L613.006 547.319C587.529 565.73 559.109 584.097 523.534 605.183C515.778 609.753 508.132 614.5 500.42 619.248C481.384 632.02 459.473 644.213 436.582 654.6L433.684 655.781C408.006 666.346 378.182 672.454 346.932 672.454C320.117 672.454 294.35 667.929 270.344 659.637L271.994 660.128C237.333 645.684 197.033 634.606 155.017 628.766L152.409 628.476V462.729H198.37L304.47 493.823C305.852 494.269 307.435 494.514 309.084 494.514C309.106 494.514 309.151 494.514 309.173 494.514H395.881C415.563 494.514 422.561 506.127 422.561 516.113C422.561 526.099 415.563 537.712 395.881 537.712H244.109C234.881 537.712 227.392 545.201 227.392 554.429C227.392 563.657 234.881 571.147 244.109 571.147H417.546C417.569 571.147 417.613 571.147 417.635 571.147C420.087 571.147 422.405 570.612 424.478 569.631L424.389 569.675L598.138 491.661C604.558 488.719 612.07 487.003 619.982 487.003C625.889 487.003 631.573 487.961 636.878 489.722L636.499 489.61C645.036 494.737 651.166 503.073 653.261 512.926L653.306 513.171C650.274 516.715 647.109 519.902 643.743 522.867L643.632 522.956L643.654 522.934ZM671.115 54.0672H584.564C575.336 54.0672 567.847 61.5566 567.847 70.7846V93.3196C527.413 87.1007 491.103 76.8251 456.821 62.6934L460.008 63.8524C434.174 54.6022 404.373 49.2749 373.301 49.2749C337.504 49.2749 303.355 56.3854 272.194 69.2466L273.955 68.6002C246.271 80.9042 222.756 93.9214 200.51 108.722L202.316 107.585C194.804 112.221 187.292 116.88 179.714 121.36C143.025 143.093 113.781 161.995 87.7237 180.896C74.8848 189.991 63.6953 198.996 53.0631 208.625L53.3751 208.357C44.9719 215.134 38.2626 223.648 33.7155 233.389L33.5372 233.812C32.8239 235.618 32.4004 237.713 32.4004 239.897C32.4004 241.146 32.5341 242.349 32.7793 243.508L32.757 243.397C36.0336 266.043 49.6081 284.945 68.5099 295.466L68.8665 295.644C77.2698 299.79 87.1442 302.22 97.5981 302.22C97.8879 302.22 98.1777 302.22 98.4674 302.22H98.4229C112.064 302.042 124.97 299.055 136.65 293.817L136.048 294.062L264.839 236.175C264.772 237.223 264.259 238.137 264.259 239.184C264.571 269.744 289.424 294.396 320.028 294.396C321.566 294.396 323.06 294.329 324.575 294.218L324.375 294.24H408.697L514.797 325.334C516.179 325.758 517.784 326.003 519.433 326.003C519.455 326.003 519.478 326.003 519.5 326.003H567.824V342.876C567.824 352.104 575.314 359.594 584.542 359.594H671.093C680.321 359.594 687.81 352.104 687.81 342.876V70.7846C687.81 61.5566 680.343 54.0672 671.115 54.0672ZM521.93 292.568L415.83 261.496C414.448 261.073 412.843 260.828 411.194 260.828C411.171 260.828 411.149 260.828 411.127 260.828H324.419C304.737 260.828 297.761 249.192 297.761 239.207C297.761 229.221 304.737 217.585 324.419 217.585H476.191C485.419 217.585 492.908 210.096 492.908 200.868C492.908 191.64 485.419 184.151 476.191 184.151H302.731C300.257 184.151 297.895 184.686 295.777 185.644L295.888 185.599L122.184 263.681C115.787 266.623 108.275 268.362 100.384 268.362C94.4553 268.362 88.7491 267.403 83.4441 265.598L83.823 265.709C75.3083 260.605 69.1786 252.246 67.0834 242.416L67.0388 242.171C70.0702 238.627 73.2353 235.417 76.6457 232.475L76.7571 232.386C85.9628 224.072 95.9487 216.07 106.403 208.692L107.406 208.023C132.638 189.723 161.057 171.334 196.855 150.159C204.612 145.545 212.302 140.775 219.992 136.027C239.027 123.255 260.916 111.085 283.83 100.742L286.705 99.583C312.405 89.0177 342.229 82.8657 373.502 82.8657C400.294 82.8657 426.039 87.3682 450.023 95.6823L448.373 95.1919C483.012 109.613 523.311 120.714 565.283 126.598L567.913 126.91V292.613L521.93 292.568ZM654.398 326.159H601.281V87.502H654.398V326.159Z" fill="#151521" stroke="white" stroke-width="6" mask="url(#path-1-inside-1_1259_1522)"/>
</svg>
