<svg width="800" height="800" viewBox="0 0 800 800" fill="none" xmlns="http://www.w3.org/2000/svg">
<path d="M133.667 146H667C699.954 146 726.667 172.714 726.667 205.667V272.333C726.667 286.876 714.877 298.667 700.333 298.667C685.789 298.667 674 286.876 674 272.333V198.667H126.667V612.667H400.333C414.877 612.667 426.667 624.456 426.667 639C426.667 653.544 414.877 665.333 400.333 665.333H133.667C100.714 665.333 74.0002 638.621 74 605.667V205.667L74.0049 204.896C74.4178 172.298 100.971 146 133.667 146ZM631.923 594.688C621.833 597.282 611.249 598.667 600.333 598.667C589.417 598.667 578.833 597.282 568.743 594.688L560 592.438V663.06L570.131 657.994L588.558 648.781V648.78C595.97 645.073 604.696 645.073 612.108 648.78L612.109 648.781L630.536 657.994L640.667 663.06V592.438L631.923 594.688ZM600.333 398.667C559.647 398.667 526.667 431.647 526.667 472.333C526.667 513.019 559.647 546 600.333 546C641.019 546 674 513.019 674 472.333C674 431.647 641.019 398.667 600.333 398.667ZM300.333 446C314.876 446 326.667 457.789 326.667 472.333C326.667 485.775 316.589 496.871 303.581 498.467L300.134 498.667H233.667C219.124 498.667 207.333 486.877 207.333 472.333C207.333 458.891 217.411 447.795 230.418 446.199L233.866 446H300.333ZM233.667 312.667H433.667C448.211 312.667 460 324.457 460 339C460 353.544 448.211 365.333 433.667 365.333H233.667C219.124 365.333 207.333 353.544 207.333 339C207.333 324.457 219.124 312.667 233.667 312.667ZM507.333 557.879L505.581 555.895C485.92 533.621 474 504.376 474 472.333C474 402.563 530.563 346 600.333 346C670.104 346 726.667 402.562 726.667 472.333C726.667 504.376 714.746 533.621 695.085 555.895L693.333 557.879V700.273C693.333 722.327 670.125 736.671 650.4 726.809L603.464 703.339L600.333 701.773L597.203 703.339L550.266 726.809C530.541 736.671 507.333 722.327 507.333 700.273V557.879Z" fill="#151521" stroke="white" stroke-width="14"/>
</svg>
