<svg width="800" height="800" viewBox="0 0 800 800" fill="none" xmlns="http://www.w3.org/2000/svg">
<path d="M73 91V709H545.59V599.941H509.236V672.649H109.353V127.353H509.236V200.059H545.59V91H73Z" fill="#151521"/>
<path fill-rule="evenodd" clip-rule="evenodd" d="M491.06 563.59C529.684 563.59 565.18 550.203 593.167 527.819L696.217 630.965C703.313 638.067 714.822 638.071 721.921 630.978C729.024 623.883 729.03 612.374 721.935 605.271L618.871 502.115C641.262 474.128 654.649 438.626 654.649 400.001C654.649 309.653 581.405 236.412 491.06 236.412C400.712 236.412 327.471 309.653 327.471 400.001C327.471 490.347 400.712 563.59 491.06 563.59ZM491.06 527.236C561.328 527.236 618.295 470.27 618.295 400.001C618.295 329.73 561.328 272.765 491.06 272.765C420.789 272.765 363.823 329.73 363.823 400.001C363.823 470.27 420.789 527.236 491.06 527.236Z" fill="#151521"/>
</svg>
