<svg width="800" height="800" viewBox="0 0 800 800" fill="none" xmlns="http://www.w3.org/2000/svg">
<path d="M664.42 198.279V148.579C664.42 121.239 642.181 99 614.841 99H598.315C570.975 99 548.736 121.239 548.736 148.579V198.157H251.262V148.579C251.262 121.239 229.023 99 201.684 99H185.157C157.818 99 135.579 121.239 135.579 148.579V198.279C108.144 198.935 86 221.349 86 248.939V659.691C86 687.693 108.78 710.473 136.781 710.473H663.219C691.22 710.473 714 687.693 714 659.691V248.939C713.999 221.349 691.854 198.935 664.42 198.279ZM581.788 148.579C581.788 139.468 589.204 132.052 598.315 132.052H614.841C623.952 132.052 631.368 139.468 631.368 148.579V280.789C631.368 289.899 623.952 297.315 614.841 297.315H598.315C589.204 297.315 581.788 289.899 581.788 280.789V148.579ZM168.631 148.579C168.631 139.468 176.047 132.052 185.157 132.052H201.684C210.794 132.052 218.21 139.468 218.21 148.579V280.789C218.21 289.899 210.794 297.315 201.684 297.315H185.157C176.047 297.315 168.631 289.899 168.631 280.789V148.579ZM680.946 659.692C680.946 669.464 672.99 677.421 663.218 677.421H136.781C127.009 677.421 119.052 669.464 119.052 659.692V248.939C119.052 239.57 126.363 231.871 135.579 231.25V280.789C135.579 308.128 157.818 330.367 185.157 330.367H201.684C229.023 330.367 251.262 308.128 251.262 280.789V231.21H548.736V280.789C548.736 308.128 570.975 330.367 598.315 330.367H614.841C642.181 330.367 664.42 308.128 664.42 280.789V231.25C673.635 231.871 680.946 239.57 680.946 248.939V659.692Z" fill="#151521"/>
<path d="M547.43 378.172L511.157 344.374L373.459 492.149L289.254 399.523L252.568 432.874L373.034 563.323L547.43 378.172Z" fill="#151521"/>
</svg>
